<svg xmlns="http://www.w3.org/2000/svg" version="1.1" xmlns:xlink="http://www.w3.org/1999/xlink" xmlns:svgjs="http://svgjs.com/svgjs" width="512" height="512" x="0" y="0" viewBox="0 0 24 24" style="enable-background:new 0 0 512 512" xml:space="preserve" class=""><g><linearGradient xmlns="http://www.w3.org/2000/svg" id="linear-gradient" gradientUnits="userSpaceOnUse" x1="4.793" x2="19.207" y1="4.793" y2="19.207"><stop offset="0" stop-color="#00c0ff"></stop><stop offset="1" stop-color="#1f9bff"></stop></linearGradient><g xmlns="http://www.w3.org/2000/svg" id="Gradient"><path d="m20.414 12 1.293-1.293a1 1 0 0 0 -1.414-1.414l-1.707 1.707h-4.172l3-3h2.586a1 1 0 0 0 0-2h-2v-2a1 1 0 0 0 -2 0v2.586l-3 3v-4.172l1.707-1.707a1 1 0 1 0 -1.414-1.414l-1.293 1.293-1.293-1.293a1 1 0 0 0 -1.414 1.414l1.707 1.707v4.172l-3-3v-2.586a1 1 0 0 0 -2 0v2h-2a1 1 0 0 0 0 2h2.586l3 3h-4.172l-1.707-1.707a1 1 0 0 0 -1.414 1.414l1.293 1.293-1.293 1.293a1 1 0 1 0 1.414 1.414l1.707-1.707h4.172l-3 3h-2.586a1 1 0 0 0 0 2h2v2a1 1 0 0 0 2 0v-2.586l3-3v4.172l-1.707 1.707a1 1 0 0 0 1.414 1.414l1.293-1.293 1.293 1.293a1 1 0 0 0 1.414-1.414l-1.707-1.707v-4.172l3 3v2.586a1 1 0 0 0 2 0v-2h2a1 1 0 0 0 0-2h-2.586l-3-3h4.172l1.707 1.707a1 1 0 0 0 1.414-1.414z" fill="url(#linear-gradient)" data-original="url(#linear-gradient)" class=""></path></g></g></svg>